<svg width="52" height="52" viewBox="0 0 52 52" fill="none" xmlns="http://www.w3.org/2000/svg">
<path fill-rule="evenodd" clip-rule="evenodd" d="M34.6666 19.5C34.6666 21.7985 33.7535 24.0029 32.1282 25.6282C30.5029 27.2536 28.2985 28.1666 25.9999 28.1666C23.7014 28.1666 21.497 27.2536 19.8717 25.6282C18.2463 24.0029 17.3333 21.7985 17.3333 19.5C17.3333 17.2014 18.2463 14.997 19.8717 13.3717C21.497 11.7464 23.7014 10.8333 25.9999 10.8333C28.2985 10.8333 30.5029 11.7464 32.1282 13.3717C33.7535 14.997 34.6666 17.2014 34.6666 19.5ZM30.3333 19.5C30.3333 20.6493 29.8767 21.7515 29.064 22.5641C28.2514 23.3768 27.1492 23.8333 25.9999 23.8333C24.8506 23.8333 23.7484 23.3768 22.9358 22.5641C22.1231 21.7515 21.6666 20.6493 21.6666 19.5C21.6666 18.3507 22.1231 17.2485 22.9358 16.4359C23.7484 15.6232 24.8506 15.1666 25.9999 15.1666C27.1492 15.1666 28.2514 15.6232 29.064 16.4359C29.8767 17.2485 30.3333 18.3507 30.3333 19.5Z" fill="#1AD993"/>
<path fill-rule="evenodd" clip-rule="evenodd" d="M26 2.16666C12.8375 2.16666 2.16663 12.8375 2.16663 26C2.16663 39.1625 12.8375 49.8333 26 49.8333C39.1625 49.8333 49.8333 39.1625 49.8333 26C49.8333 12.8375 39.1625 2.16666 26 2.16666ZM6.49996 26C6.49996 30.5283 8.04479 34.697 10.634 38.0077C12.4523 35.6198 14.7981 33.6846 17.4881 32.3533C20.1781 31.0221 23.1394 30.3307 26.1408 30.3333C29.1033 30.3305 32.0274 31.004 34.6903 32.3024C37.3532 33.6007 39.6846 35.4898 41.5068 37.8257C43.3841 35.3635 44.6481 32.4896 45.1942 29.4419C45.7404 26.3942 45.5529 23.2603 44.6474 20.2995C43.7418 17.3386 42.1443 14.6359 39.9868 12.4151C37.8294 10.1942 35.1742 8.51902 32.2408 7.52809C29.3074 6.53717 26.1802 6.259 23.118 6.7166C20.0558 7.1742 17.1465 8.35442 14.631 10.1596C12.1154 11.9648 10.0659 14.343 8.65196 17.0976C7.23803 19.8521 6.50035 22.9038 6.49996 26ZM26 45.5C21.5235 45.5067 17.1822 43.9667 13.7106 41.1407C15.108 39.1403 16.9679 37.507 19.132 36.3798C21.2962 35.2526 23.7007 34.6649 26.1408 34.6667C28.5505 34.6647 30.9258 35.2377 33.0696 36.3381C35.2134 37.4384 37.0638 39.0343 38.467 40.9933C34.9684 43.9112 30.5556 45.5064 26 45.5Z" fill="#1AD993"/>
</svg>
