<svg width="24" height="24" viewBox="0 0 24 24" fill="none" xmlns="http://www.w3.org/2000/svg">
<path d="M0.391855 4.40378C0.578084 4.20869 0.829644 4.1 1.09091 4.1H22.9091C23.1704 4.1 23.4219 4.20869 23.6081 4.40378C23.7945 4.59904 23.9 4.86481 23.9 5.14286V15.4286C23.9 15.7066 23.7945 15.9724 23.6081 16.1676C23.5674 16.2104 23.5238 16.2545 23.479 16.3C23.3489 16.432 23.208 16.575 23.092 16.7257C22.9345 16.9302 22.8091 17.1651 22.8091 17.4357V18.8571C22.8091 19.1352 22.7036 19.401 22.5172 19.5962C22.331 19.7913 22.0794 19.9 21.8182 19.9H14.1581C13.9121 19.9 13.6769 19.7993 13.5071 19.6214L13.0071 19.0976C12.7995 18.8802 12.512 18.7571 12.2114 18.7571H11.7886C11.488 18.7571 11.2005 18.8802 10.9929 19.0976L10.4929 19.6214C10.3231 19.7993 10.0879 19.9 9.84192 19.9H2.18182C1.92055 19.9 1.66899 19.7913 1.48276 19.5962C1.29639 19.401 1.19091 19.1352 1.19091 18.8571V17.4357C1.19091 17.1651 1.06552 16.9302 0.908044 16.7257C0.792035 16.575 0.651112 16.432 0.520979 16.3C0.476173 16.2545 0.432646 16.2104 0.391855 16.1676C0.205476 15.9724 0.1 15.7066 0.1 15.4286V5.14286C0.1 4.86481 0.205476 4.59904 0.391855 4.40378ZM14.878 17.8143H20.1558C20.5267 17.8143 20.8273 17.5137 20.8273 17.1429C20.8273 16.772 20.5267 16.4714 20.1558 16.4714H14.878C14.2873 16.4714 13.9844 17.1792 14.3923 17.6065C14.519 17.7392 14.6945 17.8143 14.878 17.8143ZM3.84416 17.8143H9.12203C9.30552 17.8143 9.48102 17.7392 9.60771 17.6065C10.0156 17.1792 9.71271 16.4714 9.12203 16.4714H3.84416C3.47334 16.4714 3.17273 16.772 3.17273 17.1429C3.17273 17.5137 3.47334 17.8143 3.84416 17.8143ZM2.08182 7.28571V13.2857C2.08182 13.8932 2.57431 14.3857 3.18182 14.3857H20.8182C21.4257 14.3857 21.9182 13.8932 21.9182 13.2857V7.28571C21.9182 6.6782 21.4257 6.18571 20.8182 6.18571H3.18182C2.57431 6.18571 2.08182 6.6782 2.08182 7.28571ZM5.36364 8.67143H5.54545C6.04251 8.67143 6.44545 9.07437 6.44545 9.57143V11C6.44545 11.4971 6.04251 11.9 5.54545 11.9H5.36364C4.86658 11.9 4.46364 11.4971 4.46364 11V9.57143C4.46364 9.07437 4.86658 8.67143 5.36364 8.67143ZM9.72727 8.67143H9.90909C10.4061 8.67143 10.8091 9.07437 10.8091 9.57143V11C10.8091 11.4971 10.4061 11.9 9.90909 11.9H9.72727C9.23022 11.9 8.82727 11.4971 8.82727 11V9.57143C8.82727 9.07437 9.23022 8.67143 9.72727 8.67143ZM14.0909 8.67143H14.2727C14.7698 8.67143 15.1727 9.07437 15.1727 9.57143V11C15.1727 11.4971 14.7698 11.9 14.2727 11.9H14.0909C13.5939 11.9 13.1909 11.4971 13.1909 11V9.57143C13.1909 9.07437 13.5939 8.67143 14.0909 8.67143ZM18.4545 8.67143H18.6364C19.1334 8.67143 19.5364 9.07437 19.5364 9.57143V11C19.5364 11.4971 19.1334 11.9 18.6364 11.9H18.4545C17.9575 11.9 17.5545 11.4971 17.5545 11V9.57143C17.5545 9.07437 17.9575 8.67143 18.4545 8.67143Z" fill="#025949" stroke="white" stroke-width="0.2"/>
</svg>
