<svg width="233" height="54" viewBox="0 0 233 54" fill="none" xmlns="http://www.w3.org/2000/svg">
<path d="M94.7642 43.6085C91.5117 43.6085 88.6226 42.9857 86.0967 41.74C83.5708 40.4944 81.5812 38.7644 80.128 36.5499C78.7094 34.3008 78 31.7403 78 28.8685C78 25.9966 78.7094 23.4534 80.128 21.2389C81.5812 19.0245 83.5708 17.2944 86.0967 16.0488C88.6226 14.8031 91.5117 14.1803 94.7642 14.1803C98.2243 14.1803 101.183 14.9242 103.639 16.4121C106.096 17.8999 107.792 19.9587 108.726 22.5884L99.643 27.0519C99.0548 25.7371 98.3281 24.7855 97.4631 24.1973C96.6327 23.6091 95.7158 23.315 94.7123 23.315C93.8473 23.315 93.0342 23.5226 92.273 23.9378C91.5463 24.353 90.9581 24.9758 90.5083 25.8063C90.0931 26.6021 89.8855 27.6228 89.8855 28.8685C89.8855 30.1141 90.0931 31.1521 90.5083 31.9826C90.9581 32.813 91.5463 33.4358 92.273 33.851C93.0342 34.2662 93.8473 34.4738 94.7123 34.4738C95.7158 34.4738 96.6327 34.1797 97.4631 33.5915C98.3281 33.0033 99.0548 32.0518 99.643 30.7369L108.726 35.2005C107.792 37.8301 106.096 39.8889 103.639 41.3767C101.183 42.8646 98.2243 43.6085 94.7642 43.6085Z" fill="#025949"/>
<path d="M126.183 43.6085C122.965 43.6085 120.11 42.9857 117.619 41.74C115.163 40.4598 113.225 38.7125 111.806 36.498C110.388 34.2835 109.678 31.7403 109.678 28.8685C109.678 25.9966 110.388 23.4534 111.806 21.2389C113.225 19.0245 115.163 17.2944 117.619 16.0488C120.11 14.8031 122.965 14.1803 126.183 14.1803C129.401 14.1803 132.255 14.8031 134.747 16.0488C137.238 17.2944 139.176 19.0245 140.56 21.2389C141.978 23.4534 142.688 25.9966 142.688 28.8685C142.688 31.7403 141.978 34.2835 140.56 36.498C139.176 38.7125 137.238 40.4598 134.747 41.74C132.255 42.9857 129.401 43.6085 126.183 43.6085ZM126.183 34.4738C127.048 34.4738 127.826 34.2662 128.519 33.851C129.211 33.4358 129.764 32.813 130.179 31.9826C130.595 31.1175 130.802 30.0795 130.802 28.8685C130.802 27.6228 130.595 26.6021 130.179 25.8063C129.764 24.9758 129.211 24.353 128.519 23.9378C127.826 23.5226 127.048 23.315 126.183 23.315C125.318 23.315 124.539 23.5226 123.847 23.9378C123.155 24.353 122.602 24.9758 122.187 25.8063C121.771 26.6021 121.564 27.6228 121.564 28.8685C121.564 30.0795 121.771 31.1175 122.187 31.9826C122.602 32.813 123.155 33.4358 123.847 33.851C124.539 34.2662 125.318 34.4738 126.183 34.4738Z" fill="#025949"/>
<path fill-rule="evenodd" clip-rule="evenodd" d="M41.804 43.0895V6.75839H59.2948C62.6857 6.75839 65.6095 7.31201 68.0661 8.41924C70.5574 9.52648 72.4778 11.1181 73.8272 13.1942C75.1767 15.2356 75.8514 17.6577 75.8514 20.4604C75.8514 23.2631 75.1767 25.6852 73.8272 27.7266C72.4778 29.7681 70.5574 31.3597 68.0661 32.5016C65.6095 33.6088 62.6857 34.1624 59.2948 34.1624H54.0527V43.0895H41.804ZM62.2532 23.5745C61.4573 24.3357 60.2117 24.7163 58.5163 24.7163H54.0527V16.2045H58.5163C60.2117 16.2045 61.4573 16.5851 62.2532 17.3463C63.0836 18.1075 63.4988 19.1456 63.4988 20.4604C63.4988 21.7752 63.0836 22.8133 62.2532 23.5745Z" fill="#025949"/>
<path d="M183.936 14.1803C186.081 14.1803 188.001 14.6301 189.697 15.5298C191.427 16.3948 192.776 17.7615 193.745 19.63C194.748 21.4984 195.25 23.9205 195.25 26.8962V43.0895H183.52V28.9204C183.52 27.1557 183.226 25.9101 182.638 25.1834C182.05 24.4222 181.289 24.0416 180.354 24.0416C179.662 24.0416 179.04 24.2146 178.486 24.5606C177.932 24.9066 177.482 25.4603 177.136 26.2215C176.825 26.9481 176.669 27.9515 176.669 29.2318V43.0895H164.94V28.9204C164.94 27.1557 164.663 25.9101 164.109 25.1834C163.556 24.4222 162.777 24.0416 161.774 24.0416C161.082 24.0416 160.459 24.2146 159.905 24.5606C159.352 24.9066 158.902 25.4603 158.556 26.2215C158.244 26.9481 158.089 27.9515 158.089 29.2318V43.0895H146.359V14.6993H157.518V17.3396C158.132 16.7303 158.806 16.2135 159.542 15.7893C161.341 14.7166 163.348 14.1803 165.562 14.1803C168.054 14.1803 170.251 14.8377 172.154 16.1526C173.064 16.7539 173.833 17.5231 174.461 18.4602C175.193 17.5884 176.033 16.8365 176.981 16.2045C178.988 14.855 181.306 14.1803 183.936 14.1803Z" fill="#025949"/>
<path fill-rule="evenodd" clip-rule="evenodd" d="M219.283 43.6085C216.826 43.6085 214.784 43.0895 213.158 42.0515C212.77 41.79 212.407 41.4967 212.068 41.1715V53.1584H200.339V14.6993H211.497V17.0292C211.947 16.5294 212.448 16.0988 213.002 15.7374C214.594 14.6993 216.687 14.1803 219.283 14.1803C221.774 14.1803 224.058 14.7858 226.134 15.9969C228.21 17.1733 229.871 18.8688 231.116 21.0832C232.362 23.2631 232.985 25.8755 232.985 28.9204C232.985 31.9653 232.362 34.5949 231.116 36.8094C229.871 38.9893 228.21 40.6674 226.134 41.8439C224.058 43.0203 221.774 43.6085 219.283 43.6085ZM218.815 33.851C218.123 34.2662 217.345 34.4738 216.48 34.4738C215.615 34.4738 214.836 34.2662 214.144 33.851C213.452 33.4358 212.899 32.813 212.483 31.9826C212.068 31.1521 211.861 30.1314 211.861 28.9204C211.861 27.6747 212.068 26.6367 212.483 25.8063C212.899 24.9758 213.452 24.353 214.144 23.9378C214.836 23.5226 215.615 23.315 216.48 23.315C217.345 23.315 218.123 23.5226 218.815 23.9378C219.507 24.353 220.061 24.9758 220.476 25.8063C220.892 26.6367 221.099 27.6747 221.099 28.9204C221.099 30.1314 220.892 31.1521 220.476 31.9826C220.061 32.813 219.507 33.4358 218.815 33.851Z" fill="#025949"/>
<path d="M46.092 50.3557H33.9575L41.8658 43.0895H45.8362H54.1991L46.092 50.3557Z" fill="#1AD993"/>
<path d="M36.2621 6.75837H32.3951H24.0962L32.1719 0.530182H44.3378L36.2621 6.75837Z" fill="#1AD993"/>
<path d="M41.8658 43.0895H45.8362L44.3378 0.530182L36.2621 6.75837H32.3951L33.9575 50.3557L41.8658 43.0895Z" fill="#1AD993"/>
<path d="M18.4908 43.9199C12.9201 43.9199 8.57764 42.4148 5.46355 39.4045C2.34945 36.3942 0.792404 32.1729 0.792404 26.7405V6.75839H13.0412V26.3772C13.0412 29.1453 13.5429 31.1175 14.5463 32.294C15.5498 33.4358 16.8992 34.0067 18.5946 34.0067C20.3247 34.0067 21.6741 33.4358 22.643 32.294C23.6464 31.1175 24.1481 29.1453 24.1481 26.3772V6.75839H36.1893V26.7405C36.1893 32.1729 34.6322 36.3942 31.5181 39.4045C28.404 42.4148 24.0616 43.9199 18.4908 43.9199Z" fill="#025949"/>
<path d="M36.2621 6.75837H24.0962L32.1719 0.530182H44.3378L36.2621 6.75837Z" fill="#014034"/>
<path fill-rule="evenodd" clip-rule="evenodd" d="M46.092 50.3557L54.1991 43.0895H45.8362L46.092 50.3557Z" fill="#014034"/>
</svg>
