<svg width="233" height="54" viewBox="0 0 233 54" fill="none" xmlns="http://www.w3.org/2000/svg">
<path d="M94.7642 43.6084C91.5117 43.6084 88.6226 42.9856 86.0967 41.74C83.5708 40.4943 81.5812 38.7643 80.128 36.5498C78.7094 34.3007 78 31.7403 78 28.8684C78 25.9965 78.7094 23.4533 80.128 21.2388C81.5812 19.0244 83.5708 17.2943 86.0967 16.0487C88.6226 14.803 91.5117 14.1802 94.7642 14.1802C98.2243 14.1802 101.183 14.9241 103.639 16.412C106.096 17.8998 107.792 19.9586 108.726 22.5883L99.643 27.0518C99.0548 25.737 98.3281 24.7854 97.4631 24.1972C96.6327 23.609 95.7158 23.3149 94.7123 23.3149C93.8473 23.3149 93.0342 23.5225 92.273 23.9377C91.5463 24.3529 90.9581 24.9758 90.5083 25.8062C90.0931 26.602 89.8855 27.6227 89.8855 28.8684C89.8855 30.114 90.0931 31.152 90.5083 31.9825C90.9581 32.8129 91.5463 33.4357 92.273 33.8509C93.0342 34.2661 93.8473 34.4737 94.7123 34.4737C95.7158 34.4737 96.6327 34.1796 97.4631 33.5914C98.3281 33.0032 99.0548 32.0517 99.643 30.7368L108.726 35.2004C107.792 37.83 106.096 39.8888 103.639 41.3766C101.183 42.8645 98.2243 43.6084 94.7642 43.6084Z" fill="#D1F7E9"/>
<path d="M126.183 43.6084C122.965 43.6084 120.11 42.9856 117.619 41.74C115.163 40.4597 113.225 38.7124 111.806 36.4979C110.388 34.2834 109.678 31.7403 109.678 28.8684C109.678 25.9965 110.388 23.4533 111.806 21.2388C113.225 19.0244 115.163 17.2943 117.619 16.0487C120.11 14.803 122.965 14.1802 126.183 14.1802C129.401 14.1802 132.255 14.803 134.747 16.0487C137.238 17.2943 139.176 19.0244 140.56 21.2388C141.978 23.4533 142.688 25.9965 142.688 28.8684C142.688 31.7403 141.978 34.2834 140.56 36.4979C139.176 38.7124 137.238 40.4597 134.747 41.74C132.255 42.9856 129.401 43.6084 126.183 43.6084ZM126.183 34.4737C127.048 34.4737 127.826 34.2661 128.519 33.8509C129.211 33.4357 129.764 32.8129 130.179 31.9825C130.595 31.1174 130.802 30.0794 130.802 28.8684C130.802 27.6227 130.595 26.602 130.179 25.8062C129.764 24.9758 129.211 24.3529 128.519 23.9377C127.826 23.5225 127.048 23.3149 126.183 23.3149C125.318 23.3149 124.539 23.5225 123.847 23.9377C123.155 24.3529 122.602 24.9758 122.187 25.8062C121.771 26.602 121.564 27.6227 121.564 28.8684C121.564 30.0794 121.771 31.1174 122.187 31.9825C122.602 32.8129 123.155 33.4357 123.847 33.8509C124.539 34.2661 125.318 34.4737 126.183 34.4737Z" fill="#D1F7E9"/>
<path fill-rule="evenodd" clip-rule="evenodd" d="M41.804 43.0894V6.7583H59.2948C62.6857 6.7583 65.6095 7.31192 68.0661 8.41915C70.5574 9.52638 72.4778 11.118 73.8272 13.1941C75.1767 15.2356 75.8514 17.6576 75.8514 20.4603C75.8514 23.263 75.1767 25.6851 73.8272 27.7265C72.4778 29.768 70.5574 31.3596 68.0661 32.5015C65.6095 33.6087 62.6857 34.1623 59.2948 34.1623H54.0527V43.0894H41.804ZM62.2532 23.5744C61.4573 24.3356 60.2117 24.7162 58.5163 24.7162H54.0527V16.2044H58.5163C60.2117 16.2044 61.4573 16.585 62.2532 17.3462C63.0836 18.1074 63.4988 19.1455 63.4988 20.4603C63.4988 21.7752 63.0836 22.8132 62.2532 23.5744Z" fill="#D1F7E9"/>
<path d="M183.936 14.1802C186.081 14.1802 188.001 14.63 189.697 15.5297C191.427 16.3947 192.776 17.7614 193.745 19.6299C194.748 21.4983 195.25 23.9204 195.25 26.8961V43.0894H183.52V28.9203C183.52 27.1556 183.226 25.91 182.638 25.1834C182.05 24.4221 181.289 24.0415 180.354 24.0415C179.662 24.0415 179.04 24.2145 178.486 24.5605C177.932 24.9066 177.482 25.4602 177.136 26.2214C176.825 26.948 176.669 27.9514 176.669 29.2317V43.0894H164.94V28.9203C164.94 27.1556 164.663 25.91 164.109 25.1834C163.556 24.4221 162.777 24.0415 161.774 24.0415C161.082 24.0415 160.459 24.2145 159.905 24.5605C159.352 24.9066 158.902 25.4602 158.556 26.2214C158.244 26.948 158.089 27.9514 158.089 29.2317V43.0894H146.359V14.6992H157.518V17.3395C158.132 16.7302 158.806 16.2135 159.542 15.7892C161.341 14.7165 163.348 14.1802 165.562 14.1802C168.054 14.1802 170.251 14.8376 172.154 16.1525C173.064 16.7538 173.833 17.523 174.461 18.4601C175.193 17.5883 176.033 16.8364 176.981 16.2044C178.988 14.8549 181.306 14.1802 183.936 14.1802Z" fill="#D1F7E9"/>
<path fill-rule="evenodd" clip-rule="evenodd" d="M219.283 43.6084C216.826 43.6084 214.784 43.0894 213.158 42.0514C212.77 41.7899 212.407 41.4966 212.068 41.1714V53.1583H200.339V14.6992H211.497V17.0291C211.947 16.5293 212.448 16.0987 213.002 15.7373C214.594 14.6992 216.687 14.1802 219.283 14.1802C221.774 14.1802 224.058 14.7857 226.134 15.9968C228.21 17.1732 229.871 18.8687 231.116 21.0831C232.362 23.263 232.985 25.8754 232.985 28.9203C232.985 31.9652 232.362 34.5948 231.116 36.8093C229.871 38.9892 228.21 40.6673 226.134 41.8438C224.058 43.0202 221.774 43.6084 219.283 43.6084ZM218.815 33.8509C218.123 34.2661 217.345 34.4737 216.48 34.4737C215.615 34.4737 214.836 34.2661 214.144 33.8509C213.452 33.4357 212.899 32.8129 212.483 31.9825C212.068 31.152 211.861 30.1313 211.861 28.9203C211.861 27.6746 212.068 26.6366 212.483 25.8062C212.899 24.9758 213.452 24.3529 214.144 23.9377C214.836 23.5225 215.615 23.3149 216.48 23.3149C217.345 23.3149 218.123 23.5225 218.815 23.9377C219.507 24.3529 220.061 24.9758 220.476 25.8062C220.892 26.6366 221.099 27.6746 221.099 28.9203C221.099 30.1313 220.892 31.152 220.476 31.9825C220.061 32.8129 219.507 33.4357 218.815 33.8509Z" fill="#D1F7E9"/>
<path d="M46.092 50.3555H33.9575L41.8658 43.0893H45.8362H54.1991L46.092 50.3555Z" fill="#1AD993"/>
<path d="M36.2621 6.75822H32.3951H24.0962L32.1719 0.530029H44.3378L36.2621 6.75822Z" fill="#1AD993"/>
<path d="M41.8658 43.0893H45.8362L44.3378 0.530029L36.2621 6.75822H32.3951L33.9575 50.3555L41.8658 43.0893Z" fill="#1AD993"/>
<path d="M18.4908 43.9198C12.9201 43.9198 8.57764 42.4147 5.46355 39.4044C2.34945 36.3941 0.792404 32.1728 0.792404 26.7404V6.7583H13.0412V26.3771C13.0412 29.1452 13.5429 31.1174 14.5463 32.2939C15.5498 33.4357 16.8992 34.0066 18.5946 34.0066C20.3247 34.0066 21.6741 33.4357 22.643 32.2939C23.6464 31.1174 24.1481 29.1452 24.1481 26.3771V6.7583H36.1893V26.7404C36.1893 32.1728 34.6322 36.3941 31.5181 39.4044C28.404 42.4147 24.0616 43.9198 18.4908 43.9198Z" fill="#D1F7E9"/>
<path d="M36.2621 6.75822H24.0962L32.1719 0.530029H44.3378L36.2621 6.75822Z" fill="#014034"/>
<path fill-rule="evenodd" clip-rule="evenodd" d="M46.092 50.3555L54.1991 43.0893H45.8362L46.092 50.3555Z" fill="#014034"/>
</svg>
